<svg width="300" height="350" viewBox="0 0 300 350" xmlns="http://www.w3.org/2000/svg">
  <!-- Background -->
  <rect width="300" height="350" fill="#ffffff" rx="10"/>
  
  <!-- Top coral band -->
  <rect width="300" height="50" fill="#ff7a5c" rx="10"/>
  
  <!-- Title -->
  <text x="150" y="20" font-size="12" font-weight="bold" text-anchor="middle" fill="white">Hai Yakeen</text>
  <text x="150" y="35" font-size="18" font-weight="bold" text-anchor="middle" fill="white">🅰️ BharatPe</text>
  
  <!-- Company name section -->
  <text x="150" y="75" font-size="16" font-weight="bold" text-anchor="middle" fill="#1a1a1a">GLOBAL APPLIANCE</text>
  
  <!-- QR Code area background -->
  <rect x="25" y="90" width="250" height="250" fill="#f5f5f5" rx="5"/>
  
  <!-- QR Code pattern (simplified representation) -->
  <!-- Corner markers -->
  <g fill="#000000">
    <!-- Top-left corner -->
    <rect x="30" y="95" width="20" height="20"/>
    <rect x="52" y="95" width="15" height="20"/>
    <rect x="30" y="117" width="20" height="15"/>
    <rect x="52" y="117" width="15" height="15"/>
    
    <!-- Top-right corner -->
    <rect x="250" y="95" width="20" height="20"/>
    <rect x="233" y="95" width="15" height="20"/>
    <rect x="250" y="117" width="20" height="15"/>
    <rect x="233" y="117" width="15" height="15"/>
    
    <!-- Bottom-left corner -->
    <rect x="30" y="310" width="20" height="20"/>
    <rect x="52" y="310" width="15" height="20"/>
    <rect x="30" y="288" width="20" height="15"/>
    <rect x="52" y="288" width="15" height="15"/>
  </g>
  
  <!-- QR data pattern (simulated random blocks) -->
  <g fill="#000000" opacity="0.8">
    <rect x="60" y="100" width="8" height="8"/>
    <rect x="70" y="100" width="8" height="8"/>
    <rect x="82" y="100" width="8" height="8"/>
    <rect x="95" y="100" width="8" height="8"/>
    <rect x="108" y="100" width="8" height="8"/>
    <rect x="122" y="100" width="8" height="8"/>
    <rect x="135" y="100" width="8" height="8"/>
    <rect x="150" y="100" width="8" height="8"/>
    <rect x="163" y="100" width="8" height="8"/>
    <rect x="176" y="100" width="8" height="8"/>
    <rect x="190" y="100" width="8" height="8"/>
    <rect x="203" y="100" width="8" height="8"/>
    <rect x="216" y="100" width="8" height="8"/>
    <rect x="230" y="100" width="8" height="8"/>
    
    <rect x="60" y="112" width="8" height="8"/>
    <rect x="82" y="112" width="8" height="8"/>
    <rect x="108" y="112" width="8" height="8"/>
    <rect x="135" y="112" width="8" height="8"/>
    <rect x="163" y="112" width="8" height="8"/>
    <rect x="190" y="112" width="8" height="8"/>
    <rect x="216" y="112" width="8" height="8"/>
    
    <rect x="70" y="125" width="8" height="8"/>
    <rect x="95" y="125" width="8" height="8"/>
    <rect x="122" y="125" width="8" height="8"/>
    <rect x="150" y="125" width="8" height="8"/>
    <rect x="176" y="125" width="8" height="8"/>
    <rect x="203" y="125" width="8" height="8"/>
    <rect x="230" y="125" width="8" height="8"/>
    
    <rect x="60" y="138" width="8" height="8"/>
    <rect x="82" y="138" width="8" height="8"/>
    <rect x="108" y="138" width="8" height="8"/>
    <rect x="122" y="138" width="8" height="8"/>
    <rect x="150" y="138" width="8" height="8"/>
    <rect x="176" y="138" width="8" height="8"/>
    <rect x="190" y="138" width="8" height="8"/>
    <rect x="216" y="138" width="8" height="8"/>
    
    <rect x="70" y="152" width="8" height="8"/>
    <rect x="95" y="152" width="8" height="8"/>
    <rect x="122" y="152" width="8" height="8"/>
    <rect x="150" y="152" width="8" height="8"/>
    <rect x="163" y="152" width="8" height="8"/>
    <rect x="190" y="152" width="8" height="8"/>
    <rect x="230" y="152" width="8" height="8"/>
    
    <rect x="60" y="165" width="8" height="8"/>
    <rect x="82" y="165" width="8" height="8"/>
    <rect x="108" y="165" width="8" height="8"/>
    <rect x="135" y="165" width="8" height="8"/>
    <rect x="150" y="165" width="8" height="8"/>
    <rect x="176" y="165" width="8" height="8"/>
    <rect x="203" y="165" width="8" height="8"/>
    
    <rect x="70" y="178" width="8" height="8"/>
    <rect x="95" y="178" width="8" height="8"/>
    <rect x="122" y="178" width="8" height="8"/>
    <rect x="163" y="178" width="8" height="8"/>
    <rect x="190" y="178" width="8" height="8"/>
    <rect x="216" y="178" width="8" height="8"/>
    <rect x="230" y="178" width="8" height="8"/>
    
    <rect x="60" y="192" width="8" height="8"/>
    <rect x="82" y="192" width="8" height="8"/>
    <rect x="108" y="192" width="8" height="8"/>
    <rect x="135" y="192" width="8" height="8"/>
    <rect x="150" y="192" width="8" height="8"/>
    <rect x="176" y="192" width="8" height="8"/>
    <rect x="203" y="192" width="8" height="8"/>
    <rect x="230" y="192" width="8" height="8"/>
    
    <rect x="70" y="205" width="8" height="8"/>
    <rect x="95" y="205" width="8" height="8"/>
    <rect x="122" y="205" width="8" height="8"/>
    <rect x="150" y="205" width="8" height="8"/>
    <rect x="163" y="205" width="8" height="8"/>
    <rect x="190" y="205" width="8" height="8"/>
    <rect x="216" y="205" width="8" height="8"/>
    
    <rect x="60" y="218" width="8" height="8"/>
    <rect x="82" y="218" width="8" height="8"/>
    <rect x="108" y="218" width="8" height="8"/>
    <rect x="135" y="218" width="8" height="8"/>
    <rect x="150" y="218" width="8" height="8"/>
    <rect x="176" y="218" width="8" height="8"/>
    <rect x="203" y="218" width="8" height="8"/>
    <rect x="230" y="218" width="8" height="8"/>
    
    <rect x="70" y="232" width="8" height="8"/>
    <rect x="95" y="232" width="8" height="8"/>
    <rect x="122" y="232" width="8" height="8"/>
    <rect x="150" y="232" width="8" height="8"/>
    <rect x="163" y="232" width="8" height="8"/>
    <rect x="190" y="232" width="8" height="8"/>
    <rect x="216" y="232" width="8" height="8"/>
    <rect x="230" y="232" width="8" height="8"/>
    
    <rect x="60" y="245" width="8" height="8"/>
    <rect x="82" y="245" width="8" height="8"/>
    <rect x="108" y="245" width="8" height="8"/>
    <rect x="135" y="245" width="8" height="8"/>
    <rect x="150" y="245" width="8" height="8"/>
    <rect x="176" y="245" width="8" height="8"/>
    <rect x="203" y="245" width="8" height="8"/>
    <rect x="230" y="245" width="8" height="8"/>
  </g>
  
  <!-- Center logo circle -->
  <circle cx="150" cy="185" r="25" fill="white" stroke="#17a2b8" stroke-width="3"/>
  <circle cx="150" cy="185" r="20" fill="#17a2b8"/>
  
  <!-- Tiranga inside circle -->
  <g>
    <rect x="135" y="175" width="30" height="3" fill="#ff9933"/>
    <rect x="135" y="178" width="30" height="3" fill="white" stroke="#999" stroke-width="0.5"/>
    <rect x="135" y="181" width="30" height="3" fill="#138808"/>
    <!-- Ashoka Chakra simplified -->
    <circle cx="150" cy="179.5" r="1" fill="#000080"/>
  </g>
  
  <!-- UPI ID section -->
  <rect x="30" y="348" width="240" height="25" fill="#f0f0f0" rx="3"/>
  <text x="150" y="362" font-size="11" text-anchor="middle" fill="#0066ff" font-weight="bold">
    🔗 BHARATPE09910413398@yesbankltd
  </text>
  
  <!-- Bottom section -->
  <rect y="290" width="300" height="60" fill="#00897b" rx="0 0 10 10"/>
  
  <!-- BHIM/UPI text -->
  <text x="150" y="315" font-size="14" font-weight="bold" text-anchor="middle" fill="white">
    BHIM 🔄 UPI
  </text>
  <text x="150" y="330" font-size="9" text-anchor="middle" fill="white" opacity="0.9">
    BHARAT INTERFACE FOR MONEY - UNIFIED PAYMENTS INTERFACE
  </text>
  
  <!-- Payment apps -->
  <text x="150" y="348" font-size="10" text-anchor="middle" fill="white">
    Pay with any UPI app: 🏪 Paytm • 📱 GooglePay • 📲 PhonePe • 🎯 Tez
  </text>
</svg>
