<svg width="200" height="100" viewBox="0 0 200 100" xmlns="http://www.w3.org/2000/svg">
  <!-- Outer circle background -->
  <circle cx="50" cy="40" r="38" fill="white"/>
  <circle cx="50" cy="40" r="35" fill="#3d3d3d"/>
  
  <!-- Inner circle white border -->
  <circle cx="50" cy="40" r="32" fill="#3d3d3d" stroke="white" stroke-width="4"/>
  
  <!-- Hand outline -->
  <path d="M 30 45 Q 25 50 20 48 Q 18 47 19 45 Q 25 42 30 40" fill="white" stroke="white" stroke-width="1.5"/>
  <path d="M 35 50 Q 30 55 25 53 Q 23 52 24 50 Q 30 47 35 45" fill="white" stroke="white" stroke-width="1.5"/>
  
  <!-- Three people icons -->
  <!-- Left person -->
  <circle cx="35" cy="25" r="4" fill="#4a9fd8"/>
  <path d="M 32 30 L 38 30 L 37 38 Q 35 39 33 38 Z" fill="#4a9fd8"/>
  
  <!-- Center person (taller) -->
  <circle cx="50" cy="22" r="5" fill="#4a9fd8"/>
  <path d="M 46 28 L 54 28 L 53 38 Q 50 40 47 38 Z" fill="#4a9fd8"/>
  
  <!-- Right person -->
  <circle cx="65" cy="25" r="4" fill="#4a9fd8"/>
  <path d="M 62 30 L 68 30 L 67 38 Q 65 39 63 38 Z" fill="#4a9fd8"/>
  
  <!-- Text -->
  <text x="100" y="30" font-family="Arial, sans-serif" font-size="16" font-weight="bold" fill="white" letter-spacing="1">GLOBALAPPLIANCE</text>
  <text x="100" y="50" font-family="Arial, sans-serif" font-size="10" fill="#999999" letter-spacing="0.5">WATER PURIFIER &amp; CHIMNEY</text>
</svg>
